Plot

A psychotic redneck who owns a dilapidated hotel in the backwater swamps of Louisiana kills
various people who upset him or his business, and he feeds their bodies to a large crocodile
that he keeps as a pet in the swamp beside his hotel.


Cast

Neville Brand ... Judd
Mel Ferrer ... Harvey Wood
Carolyn Jones ... Miss Hattie
Marilyn Burns ... Faye
William Finley ... Roy
Stuart Whitman ... Sheriff Martin
Roberta Collins ... Clara
Kyle Richards ... Angie
Robert Englund ... Buck
Crystin Sinclaire ... Libby Wood
Janus Blythe ... Lynette
Betty Cole ... Ruby
Sig Sakowicz ... Deputy Girth
Ronald W. Davis ... Country Boy
Christine Schneider ... Waitress

Complete name : Eaten Alive 1977 DVDRip Xvid BigPerm LKRG\EatenAlive_LKRG.avi
Format : AVI
Format/Info : Audio Video Interleave
File size : 836 MiB
Duration : 1h 30mn
Overall bit rate : 1 286 Kbps

Video
ID : 0
Format : MPEG-4 Visual
Format profile : Simple@L3
Format settings, BVOP : No
Format settings, QPel : No
Format settings, GMC : No warppoints
Format settings, Matrix : Default (H.263)
Codec ID : XVID
Codec ID/Hint : XviD
Duration : 1h 30mn
Bit rate : 1 082 Kbps
Width : 700 pixels
Height : 400 pixels
Display aspect ratio : 16:9
Frame rate : 29.970 fps
Resolution : 8 bits
Colorimetry : 4:2:0
Scan type : Progressive
Bits/(Pixel*Frame) : 0.129
Stream size : 704 MiB (84%)
Writing library : XviD 1.2.1 (UTC 2008-12-04)

Audio
ID : 1
Format : AC-3
Format/Info : Audio Coding 3
Codec ID : 2000
Duration : 1h 30mn
Bit rate mode : Constant
Bit rate : 192 Kbps
Channel(s) : 2 channels
Channel positions : Front: L R
Sampling rate : 48.0 KHz
Stream size : 125 MiB (15%)
Alignment : Aligned on interleaves
Interleave, duration : 33 ms (1.00 video frame)
Interleave, preload duration : 512 ms
Language : English